<svg xmlns="http://www.w3.org/2000/svg" xmlns:xlink="http://www.w3.org/1999/xlink" id="Layer_1" x="0px" y="0px" viewBox="0 0 1626.1 275.3" style="enable-background:new 0 0 1626.1 275.3;" xml:space="preserve"><style type="text/css">	.st0{fill-rule:evenodd;clip-rule:evenodd;}</style><g>	<path class="st0" d="M1006.8,29.9h61.6v51.3h-48.9c-36,0.1-50.5,37.8-50.5,60.6c0,28.6,21.4,57.1,52.8,57.2h46.6v53.2h-67.6  c-55,0-103.5-47.2-103.5-110.4C897.2,78.5,935.9,29.8,1006.8,29.9L1006.8,29.9L1006.8,29.9z"></path>	<path class="st0" d="M262,30.1h69.9v149c0.1,17.4,21.5,26.6,33.2,26.6c11.7,0,33.1-10,33.2-26.3V30.1h69.9v140.1  c0.1,61.8-59,88.4-102.5,88.4c-51.4,0-103.8-27.1-103.7-89.2V30.1L262,30.1L262,30.1z"></path>	<polygon class="st0" points="1091.3,29.7 1246.5,29.7 1246.5,79.8 1161.3,79.8 1161.3,111 1227.8,111 1227.8,157.3 1161.3,157.3   1161.3,196.8 1261.1,196.8 1247.2,252.1 1091.3,252.1 1091.3,29.7 1091.3,29.7  "></polygon>	<polygon class="st0" points="1276,30 1346.9,30 1346.9,197.6 1430.7,197.6 1418.1,251.8 1276,251.8 1276,30 1276,30  "></polygon>	<polygon class="st0" points="1448,30 1518.9,30 1518.9,197.6 1602.8,197.6 1590.2,251.8 1448,251.8 1448,30 1448,30  "></polygon>	<path class="st0" d="M99.5,81.5h34.1c31.1-0.1,43.3,38.2,43.3,59.6c0,22.9-14.8,59.7-45.9,59.6H99.5V81.5L99.5,81.5L99.5,81.5  L99.5,81.5z M30.7,29.9h114c72.4-0.1,100.9,58,100.9,113.8c0,57-47.4,108.7-106,108.7H30.7V29.9L30.7,29.9L30.7,29.9z"></path>	<path class="st0" d="M787.4,93.2l26.4,80.9h-49.4L787.4,93.2L787.4,93.2L787.4,93.2L787.4,93.2z M489.7,29.9h130.3  c35.2,0.2,62.1,25.3,62.1,55.3c0,21.5-18.8,45-41.3,65.9l38.9,75.3l67.7-195.9h85.8l77.7,221.9l-74.6,0l-10-31.4h-75.4l-8.9,31.5  H617.4l-50.3-100.3c10.3-11.6,42.5-39.9,42.5-55.9c0-10.6-5.1-14.9-17-14.9h-34.4v170.9h-68.4V29.9L489.7,29.9L489.7,29.9z"></path></g></svg>