<svg xmlns="http://www.w3.org/2000/svg" xmlns:xlink="http://www.w3.org/1999/xlink" id="Layer_1" x="0px" y="0px" viewBox="0 0 575.5 193" style="enable-background:new 0 0 575.5 193;" xml:space="preserve"><style type="text/css">	.st0{fill-rule:evenodd;clip-rule:evenodd;}</style><g>	<path d="M21.4,91.8c23.4,12.2,59.6,14.6,83.2,5.8c11.2-4,20.9-13.9,21.4-25.8c-0.2-9.5-5.2-18.6-13.8-23.1  C89.5,39,61.9,41,37.5,35.2C36,34.7,33,33.4,33,29.1c0.6-10.7,22.9-12,36.8-11c15.3,1.6,33.5,4.4,39.3,20.5l12.1-0.1l-0.1-29.1  l-12.4-0.1l0,6l-4.5-1.8C77,0.8,31.5,0.5,14.2,19c-6.3,5.6-9.4,15.3-4.8,24c13.6,24.2,46.4,19.3,71,23.6c7.2,1.3,14.5,0.3,19.4,6.5  c1.5,3.1,1.3,7.9-2.3,10c-14.9,9.6-37.4,7.1-53.7,2.5c-9.3-2.9-21-10.2-22.5-20.5h-12l0.1,34.6l12.2-0.1L21.4,91.8L21.4,91.8z"></path>	<polygon points="487.7,64.3 487.8,86.1 472.5,86.1 472.5,98 532.7,98.1 532.7,86.1 516.8,86.2 516.8,62.9 554.8,21.6 570.5,21.6   570.4,9.9 521.7,9.9 521.6,21.6 531.1,21.6 506.9,47.6 486.1,21.6 495.7,21.6 495.7,9.9 435.4,9.8 435.4,21.6 452.2,21.6   487.7,64.3  "></polygon>	<path d="M288.1,9.8l42,0.1l58.4,51.3V21.6l-14.5,0V9.9l49.3-0.1v11.8l-14.6,0l-0.1,76.5L391.1,98c-23.3-18.9-45.4-39.8-68.8-58.3  v46.6h15.2L337.4,98l-49.3,0.1V86.2l15.2,0.1l-0.1-64.6l-15-0.1L288.1,9.8L288.1,9.8z"></path>	<path class="st0" d="M209.1,102.9c37.4,0,67.8-22.2,67.8-49.5c0-27.4-30.4-49.6-67.8-49.6c-37.5,0-67.9,22.2-67.9,49.6  C141.3,80.7,171.7,102.9,209.1,102.9L209.1,102.9z M210,18.6c21.3,0,38.6,15.9,38.6,35.4c0,19.6-17.3,35.4-38.6,35.4  c-21.3,0-38.5-15.8-38.5-35.4C171.5,34.5,188.8,18.6,210,18.6L210,18.6z"></path>	<polygon class="st0" points="479.7,154 478,153.5 479.7,153.5 479.7,154  "></polygon>	<path class="st0" d="M31.8,155.1v-17.6h9c10.8,0,15.5,2.7,15.5,8.7c0,6.4-4.2,8.9-15.8,8.9H31.8L31.8,155.1z M31.8,160.8h14.4  c7.6,0,9.9-0.2,13.8-1.2c7.3-1.9,11.7-6.8,11.7-12.9c0-4.3-2.1-8-5.9-10.8c-4.7-3.4-8.3-4.1-19.5-4.1H7.5v5.7h4.2  c5.1,0,5.7,0.7,5.8,5.5l0.1,2.4v26.3l-0.1,2.5c-0.1,4.8-0.7,5.5-5.8,5.5H7.5v5.7h33.1v-5.7h-2.9c-5,0-5.7-0.6-5.8-5.5l-0.1-2.6  V160.8L31.8,160.8z"></path>	<path class="st0" d="M113.8,179.5h-3.1c-5.1,0-5.7-0.7-5.8-5.5l-0.1-2.5v-26.3l0.1-2.4c0.1-4.9,0.7-5.6,5.8-5.6h3.1v-5.7H81.5v5.7  h3.3c5.1,0,5.7,0.7,5.8,5.6l0.1,2.4v26.3l-0.1,2.5c-0.1,4.9-0.7,5.5-5.8,5.5H82v5.7h31.9V179.5L113.8,179.5z"></path>	<path class="st0" d="M183.4,131.5H175l-2.6,5.7c-1.4-1-2.6-1.9-3.8-2.7c-4.4-2.9-9.1-4.2-15.7-4.2c-18.8,0-32.1,11.5-32.1,27.8  c0,17.1,13.4,28.1,33.8,28.1c4.2,0,8.1-0.5,11.5-1.3c4.1-1,7.8-2.9,10.8-5.6c4.5-4,5.9-7.2,6.7-14.8H175c-0.9,4.2-1.3,5.4-3,8.1  c-2.9,4.6-8.8,7.1-16.2,7.1c-12.4,0-18.7-6.9-18.7-20.8c0-14.7,6.1-21.6,19.1-21.6c5.5,0,9.8,1.5,13.4,4.4  c3.4,2.8,4.6,5.1,5.8,10.7h7.9V131.5L183.4,131.5z"></path>	<path class="st0" d="M194.1,131.5v22.1h7.5c0-0.6,0-1.2,0-1.7c0-9.7,5.9-14.5,17.7-14.7V174c-0.1,4.9-0.8,5.5-5.8,5.5h-2.6v5.7  h31.6v-5.7h-3.1c-5.2,0-5.8-0.6-5.9-5.5v-36.7c12.7,0.3,18,5.1,18.1,16.4h7.8v-22.1H194.1L194.1,131.5z"></path>	<path class="st0" d="M266.8,137.2h1.3c5.1,0,5.7,0.7,5.8,5.6l0.1,2.4V164c0,6.6,0.3,8.9,1.9,12.2c2.9,6.5,12.5,10.1,26.1,10.1  c8,0,14.6-1.4,19.6-4c2.5-1.5,4.7-3.4,5.9-5.7c1-1.8,1.6-4,1.7-6.4c0-0.7,0-2.8,0-6.2v-21.2c0.1-4.9,0.7-5.6,5.8-5.6h2.2v-5.7  h-27.1v5.7h2.5c5,0,5.7,0.7,5.8,5.6l0.1,2.4V164c0,7.8-0.3,8.8-2.5,11.2c-2.2,2.5-6.9,4-12.3,4c-5.4,0-10.6-1.6-13-4  c-2.2-2.2-2.6-4-2.6-11.2v-18.8l0.1-2.4c0.1-4.9,0.8-5.6,5.9-5.6h4.3v-5.7h-31.6V137.2L266.8,137.2z"></path>	<path class="st0" d="M368.6,154.3v-17h11.2c9.8,0,14.3,2.7,14.3,8.7c0,5.9-3.9,8.3-14,8.3H368.6L368.6,154.3z M368.6,160h9.4  c2.6,0,5.9,1.2,7.9,2.6c2.8,2.2,3.4,3.8,3.6,11.7c0.3,8.4,4.8,12.1,14.5,12.1c9.8,0,13.5-3.5,13.5-12.6c0-0.9,0-1.8-0.1-3.9h-6.8  l0.1,3.2l0.1,0.8c0,3.9-0.9,5.3-3.4,5.3c-2.1,0-3.2-1-3.4-3.3l-0.3-5.4c-0.3-5.1-2.3-8.3-6.3-10.2c-2-1-3.3-1.3-7.5-2.1  c6.2-0.9,8.3-1.5,11.5-2.7c5.6-2.2,8.3-5.6,8.3-10.4c0-4.6-2.8-8.7-7.8-11.1c-3.9-2-6.2-2.4-14.3-2.4h-43.1v5.7h4  c5.1,0,5.7,0.7,5.8,5.6l0.1,2.4v26.3l-0.1,2.5c-0.1,4.8-0.7,5.5-5.8,5.5h-4v5.7h32.3v-5.7h-2.4c-5.1,0-5.7-0.7-5.8-5.5l-0.1-2.5  V160L368.6,160z"></path>	<path class="st0" d="M490.1,131.5h-64.7v5.7h2.2c4.2,0,5.4,0.7,5.7,3.3l0.1,2.8V174c-0.1,4.9-0.8,5.5-5.8,5.5h-2v5.7h64.4v-21.5h-8  c0,1.5-0.1,3.3-0.1,3.8c0,2.6-0.5,4.9-2.7,7.4c-2.9,3.5-6,4.5-14.2,4.4h-17.5v-19.2h4.5c7.7,0,10,2.7,10,11.5h7.4v-27.4h-7.4v1  c0,6.8-2.4,9.6-8.7,9.6c-0.3,0-1.6,0-3.7-0.1h-2.1v-17.5h17.6c7.9,0,11.8,1.5,14.2,5.2c1.9,2.9,2.6,6,2.7,10.9h7.9V131.5  L490.1,131.5z"></path>	<path class="st0" d="M559.7,131.5h-6.4l-3.1,4.9c-1.5-1-2.8-1.8-4-2.5c-4.3-2.4-9.7-3.5-16.5-3.5c-15.6,0-25.4,6.4-25.4,16.5  c0,2.7,0.8,5.2,2.5,7.4c2.8,3.9,7,5.6,17.3,7.2c10.4,1.6,16.9,2.8,21.1,3.9c4.7,1.2,7.1,3.5,7.1,6.5c0,4.8-5.3,7.6-14.4,7.6  c-6.5,0-12.7-1.8-17.4-4.9c-4.7-3.2-6.2-5.8-7.6-12.3h-7.3v22.9h7.3l2.6-5.7c1.5,1.1,2.6,2,3.7,2.6c4.5,2.8,11.1,4.3,19,4.3  c15.7,0,25.6-6.4,25.6-16.6c0-6-3.6-10.6-11-13.7c-4.9-2-9-3-20.7-4.7c-12.3-1.7-15.3-3.1-15.3-7.1c0-4.5,5-7.3,13.1-7.3  c12.3,0,20.5,5.5,22.5,15.1h7.1V131.5L559.7,131.5z"></path></g></svg>