<svg xmlns="http://www.w3.org/2000/svg" xmlns:xlink="http://www.w3.org/1999/xlink" id="Layer_1" x="0px" y="0px" viewBox="0 0 446.871 154.716" xml:space="preserve"><g>	<path d="M278.616,9.994c-14.688,0.734-28.009,5.764-38.836,10.563c-3.055,1.354-8.322,5.314-11.242,5.435  c-3.441,0.147-9.709-3.322-14.36-4.663c-20.572-5.921-51.873-13.625-67.901-1.163c-20.13-2.92-38.687,2.073-53.932,6.598  c-0.861-12.045-12.11-19.258-25.221-15.524c-8.771,2.494-15.968,7.445-24.83,10.87C24.937,28.807,7.405,43.069,8.529,65.564  c0.533,10.582,5.137,19.194,8.153,26.766c3.146,7.899,6.44,14.199,11.642,23.285c-1.431,2.671-2.704,4.369-3.108,7.371  c-3.371,25.216,30.325,26.044,48.115,18.623c15.344-6.412,31.426-17.762,42.299-25.993c-8.723,37.338,49.923,38.988,64.793,20.177  c20.909,15.623,66.1,13.89,88.459,0.772c20.648,16.631,66.452,10.295,94.285,3.881c14.395-3.318,27.087-5.991,36.482-12.797  c9.614-6.98,15.633-17.669,18.222-31.428c-1.973-5.272-5.344-9.125-8.534-13.197c1.589-3.341,2.049-9.404,1.173-13.969  c12.165-8.711,22.296-22.28,31.428-33.755c1.089-1.375,3.171-3.172,2.699-5.044c-41.621-6.485-81.759-19.421-129.967-17.069  c-3.044,0.145-6.489,1.026-9.316,0.773c-4.153-0.375-7.731-2.438-11.633-3.099C288.562,9.981,283.512,9.749,278.616,9.994  L278.616,9.994z"></path>	<path fill="#FFFFFF" d="M281.168,25.291c-18.827,0.378-36.429,9.763-50.302,17.375c-14.793,8.115-27.998,17.647-37.259,27.159  c3.348-5.705,6.905-11.344,10.87-16.676c4.02-5.414,8.497-10.312,12.033-15.135c-7.734-2.022-15.49-4.164-23.291-5.825  c-11.089-2.359-26.508-6.27-35.693-1.163c-2.657,1.475-4.828,5.107-7.371,5.433c-2.098,0.274-5.565-1.253-8.151-1.541  c-9.481-1.054-18.2-0.183-26.766,1.541c-8.024,1.608-24.993,4.465-27.164,12.029c-1.394,4.856,1.708,9.558,1.163,14.36  c-0.533,4.726-5.068,10.969-7.371,14.738c-2.82,4.618-5.687,8.713-10.478,10.861c-2.904-14.456,0.252-27.299,2.714-39.561  c1.521-7.554,4.589-15.286,1.948-22.894c-7.396-1.029-13.624,4.827-20.951,7.754c-13.762,5.51-29.091,10.523-31.036,26.384  c-1.096,8.93,2.256,14.617,4.653,20.96c5.135,13.627,11.479,25.156,19.012,35.689c-2.054,3.774-6.892,4.759-7.381,10.081  c2.189,3.101,6.758,3.499,11.263,3.499c13.02-0.028,23.693-6.584,33.362-12.033c21.056-11.843,35.2-30.084,50.053-47.334  c2.608-3.032,4.756-6.682,8.151-8.525c3.336,15.325-3.152,23.512-7.769,36.071c-1.778,4.839-7.396,19.986-4.657,27.159  c2.994,7.892,28.538,8.235,35.31,3.116c3.411-2.576,4.779-8.411,6.61-12.033c2.336-4.66,4.354-8.686,6.199-12.804  c0.105,16.996,12.733,21.988,26.384,25.608c29.018,7.671,58.27-6.032,74.096-15.513c-1.977,12.592,2.926,13.851,12.818,15.906  c25.589,5.282,51.35-0.811,72.162-5.825c19.079-4.593,34.427-7.844,37.254-26.776c-3.053-2.641-10.69-2.314-15.915-1.546  c-15.384,2.252-30.284,10.033-50.824,8.535c-3.746-0.275-11.837-1.58-12.421-3.872c-0.901-3.585,5.51-6.093,10.88-6.988  c15.395-2.606,37.65,0.027,50.039-4.662c5.956-2.245,13.128-8.728,12.407-15.906c-0.472-4.847-6.792-7.381-12.794-7.749  c-16.978-1.063-29.115,8.841-46.937,5.423c2.229-2.818,2.629-7.448,5.428-9.698c13.029-0.272,25.688,2.321,38.02,1.556  c17.147-1.073,26.819-8.296,34.927-17.849c0.866-1.03,3.043-2.142,2.326-3.882c-29.781-4.53-70.383-16.533-107.094-12.033  c-4.752,0.574-8.165,5.537-11.287,7.491l0.029-0.12c0.596-2.65,1.718-4.758,1.943-7.754c-6.455-2.274-12.866-3.148-19.141-3.02  V25.291z M295.657,44.222c3.627,4.134,11.566,3.957,16.289,6.988c-6.375,1.638-14.403,1.63-20.18,3.872  C293.126,51.526,294.351,47.833,295.657,44.222z M250.639,58.572c-1.908,8.704-5.901,18.671-8.142,28.322  c12.334,0.174,25.342-2.334,38.024-3.097c1.715-2.294,2.556-5.456,3.494-8.535c2.54,3.602,4.333,10.332,1.943,15.513  c-19.26-0.268-33.109,15.498-51.996,15.523c-8.462,0.009-15.647-4.862-11.641-14.36C227.979,78.538,242.003,69.177,250.639,58.572z  "></path></g></svg>