<svg xmlns="http://www.w3.org/2000/svg" xmlns:xlink="http://www.w3.org/1999/xlink" id="Layer_1" x="0px" y="0px" viewBox="0 0 692 217" style="enable-background:new 0 0 692 217;" xml:space="preserve"><style type="text/css">	.st0{fill-rule:evenodd;clip-rule:evenodd;fill:#33347E;}	.st1{fill-rule:evenodd;clip-rule:evenodd;fill:#EB2E2E;}</style><path class="st0" d="M372.4,89.3c-7-8.8-16.4-13.5-28.5-13.5c-9.1,0-18.2,4.4-27,12.6V36.4l-20,10.9v137.9h20V175 c7,8.2,15.8,12.6,26.1,12.6c11.4,0,21.1-4.7,28.5-13.2c8.2-10,12.6-23.8,12.6-41.1C384.1,113.9,380,99.2,372.4,89.3L372.4,89.3z  M316.6,108.9c7.3-9.4,15-13.8,23.5-13.8c15.8,0,23.5,12.9,23.5,39c0,22.3-7.3,33.8-22.6,33.8c-9.1,0-17-4.7-24.4-14.1V108.9 L316.6,108.9z"></path><path class="st0" d="M408.8,101.3c7.6-4.7,16.7-6.7,27-6.7c12.9,0,19.7,6.2,19.7,18.2v7.9c-5.9-2.6-13.5-4.1-22.9-4.1 c-12.6,0-22.3,2.9-29.6,8.5c-7.9,6.2-11.7,14.7-11.7,26.1c0,12.3,3.8,21.4,11.7,28.2c6.5,5.6,14.4,8.2,24.1,8.2 c10.9,0,20.3-4.4,28.5-12.9v10.6h20v-73.7c0-11.7-3.5-20.5-10.9-27c-6.8-5.9-16.1-8.8-28.2-8.8c-13.8,0-25.5,3.2-35.5,9.7 L408.8,101.3L408.8,101.3z M455.4,139.5v15.3c-6.5,9.1-15,13.8-25.2,13.8c-13.2,0-19.7-5.9-19.7-17.9c0-10.6,7-15.8,21.4-15.8 C441.1,134.8,449,136.5,455.4,139.5L455.4,139.5z"></path><path class="st0" d="M517.1,77.8h-20.3v107.4h20.3v-62.8c0-18.2,7-27.3,21.1-27.3c14.4,0,21.4,9.7,21.4,29.3v60.7h20.5v-61.6 c0-32-12.6-47.8-37.3-47.8c-11.7,0-20.5,4.4-25.8,12.6V77.8L517.1,77.8z"></path><polygon class="st0" points="654.4,77.8 633,109.2 621.2,126.8 621.5,36.4 601.3,47.6 601.3,185.2 621.5,185.2 621.5,153.5  637.4,131.8 660.3,185.2 682.3,185.2 651.2,113.9 677.3,77.8 654.4,77.8 "></polygon><polygon class="st0" points="138.8,77.5 116.5,77.5 116.5,185.2 138.8,185.2 138.8,77.5 "></polygon><path class="st0" d="M158.7,77.5v20.2h18.8v60.7c0,8.2,2.3,15.3,6.7,20.5c4.4,5,10.6,7.6,17.6,7.9c7.9,0.3,14.7-1.8,19.7-5h0.3 l0.3-0.3l4.7-19.1l0.3-1.5l-1.2,0.6c-6.2,3.8-11.2,5.6-16.4,5.6c-6.7,0-10.3-3.8-10.3-12V97.8h22.6V77.5h-22.6V43.8l-21.4,11.7h-0.3 v22H158.7L158.7,77.5z"></path><polygon class="st0" points="265.9,77.5 243.3,77.5 243.3,185.2 265.9,185.2 265.9,77.5 "></polygon><path class="st0" d="M65.4,75.5c-15.8,0-29.1,5-39.6,14.7c-11.4,10.3-17,24.1-17,41.4c0,17,5.6,31.1,17,41.4 c10.6,9.7,23.8,14.7,39.6,14.7c15,0,27.9-6.2,38.2-18.5l0.3-0.3l-0.3-0.3l-11.7-14.4l-0.6-0.6l-0.3,0.6 c-7.6,8.2-16.4,12.3-26.4,12.3c-9.7,0-17.6-3.2-24.1-10c-6.2-6.5-9.4-14.7-9.4-24.9c0-10.3,3.2-18.5,9.4-24.9 c6.5-6.8,14.4-10,24.1-10c10,0,18.8,4.1,26.4,12.3l0.3,0.6l0.6-0.6l11.7-14.4l0.3-0.3l-0.3-0.3C93.3,81.6,80.4,75.5,65.4,75.5 L65.4,75.5z"></path><path class="st1" d="M127.6,59.6c17.3-18.2,38.4-27.3,63.1-27.3c24.7,0,45.8,9.1,62.8,27.3l0.6,0.3h25.2l-0.9-1.5 c-10-14.1-22.9-25.2-38.7-33.5c-15.6-8.2-31.7-12-49-12c-17,0-33.5,3.8-49,12C126.2,33.2,113,44.4,103,58.5l-0.9,1.5h25.2 L127.6,59.6L127.6,59.6z"></path></svg>