<svg xmlns="http://www.w3.org/2000/svg" xmlns:xlink="http://www.w3.org/1999/xlink" id="Layer_1" x="0px" y="0px" viewBox="0 0 575.2 253.4" style="enable-background:new 0 0 575.2 253.4;" xml:space="preserve"><style type="text/css">	.st0{fill-rule:evenodd;clip-rule:evenodd;}</style><g>	<path class="st0" d="M217.5,18h139.6v139.6H217.5V18L217.5,18z M237,37.3v100.9h100.6V37.3H237L237,37.3z"></path>	<polygon class="st0" points="248.8,123.5 299.1,49.3 326.3,48.8 274.3,123.5 248.8,123.5  "></polygon>	<path class="st0" d="M11.3,236.5v-56.6h24.2c7.7,0,13.5,3,17.9,9.1c3.6,5.2,5.5,11.5,5.5,19.2c0,7.4-1.9,14-6,19.5  c-4.4,5.8-10.2,8.8-17.3,8.8H11.3L11.3,236.5z M23.2,190v36.3h11c4.4,0,7.4-1.9,9.6-5.5c1.9-3.3,2.7-7.4,2.7-12.6  c0-4.4-0.8-8.5-2.7-11.8c-2.2-4.4-5.5-6.3-9.6-6.3H23.2L23.2,190z M93,223.3h11c-0.8,4.7-3.3,8-7.1,10.7c-3.3,2.2-7.4,3.3-12.4,3.3  c-5.8,0-10.4-2.2-14-6.3c-3.8-4.1-5.8-9.3-5.8-15.9c0-5.8,1.9-10.7,5.5-14.6c3.8-3.8,8.5-6,14.3-6c8.2,0,13.7,3,16.8,8.8  c1.1,1.9,1.9,4.4,2.5,6.9c0.5,2.7,0.8,5.5,0.8,8.5H75.9c0,2.2,0.8,4.1,2.2,6c1.9,2.2,3.8,3.3,6.3,3.3c1.9,0,3.8-0.5,5.2-1.1  C91.3,226,92.4,224.9,93,223.3L93,223.3z M75.9,211.5h17c0-1.9-0.8-3.8-2.5-5.2c-1.9-1.6-3.8-2.5-6-2.5c-2.2,0-4.1,0.8-5.8,2.5  C76.7,207.6,75.9,209.5,75.9,211.5L75.9,211.5z M111.4,195.3h11v27.2c0,1.4,0.8,2.7,1.9,3.8c1.4,1.1,3,1.6,4.7,1.6  c2.2,0,4.1-0.5,5.8-1.9c1.6-1.6,2.5-3.3,2.5-5.2v-25.6h10.7v41.2h-10.7v-5.2c-3.3,4.1-7.4,6-12.4,6c-3.6,0-6.6-1.1-9.1-2.7  c-2.7-1.9-4.4-4.7-4.4-8V195.3L111.4,195.3z M169.6,183.4v11.8h6.3v7.7h-6.3v21.2c0,0.8,0.5,1.6,1.1,2.2c0.5,0.6,1.4,0.8,2.5,0.8  c0.5,0,1.1,0,1.6,0c0.5-0.3,0.8-0.3,1.1-0.3v9.6c-1.4,0.3-2.7,0.5-3.6,0.5c-1.1,0.3-2.5,0.3-4.4,0.3c-2.7,0-4.7-0.8-6.6-2.7  c-1.6-1.6-2.5-3.6-2.5-6v-25.6h-5.5v-7.7h5.5v-5.5L169.6,183.4L169.6,183.4z M180.6,222.5h11c0,1.9,0.5,3.6,2.2,4.7  c1.4,1.1,3.3,1.6,5.5,1.6c1.9,0,3.6-0.3,4.7-0.8c1.4-0.5,2.2-1.9,2.2-3.6c0-2.2-1.9-3.8-6.3-4.9c-7.1-1.9-11.3-3-11.8-3.6  c-4.4-1.9-6.6-4.7-6.6-8.5c0-3.8,1.6-6.9,4.7-9.3c3-2.5,7.1-3.6,12.1-3.6c4.9,0,8.8,1.1,12.1,3.3c3.6,2.5,5.5,5.8,5.5,10.4h-10.2  c-0.3-1.6-1.1-3-2.5-3.8c-1.4-0.8-3-1.4-4.9-1.4c-1.6,0-3,0.5-4.1,1.1c-1.1,0.8-1.6,1.6-1.6,3c0,1.6,2.2,3,6.3,3.8  c6.3,1.1,10.4,1.9,11.8,2.7c4.4,1.9,6.6,5.2,6.6,9.9c0,4.7-1.9,8.2-5.8,10.4c-3.3,2.2-7.1,3.3-12.1,3.3c-5.5,0-9.9-1.4-13.5-4.1  C182.3,230.7,180.6,227.1,180.6,222.5L180.6,222.5z M242.7,237.3c-5.8,0-10.4-2.2-14.3-6.3c-3.6-4.1-5.5-9.3-5.5-15.9  c0-5.5,1.9-10.4,5.8-14.6c3.8-3.8,8.5-6,14-6c4.9,0,9.3,1.6,12.9,4.7c3.8,2.7,5.8,6.6,5.8,11h-11c0-1.9-0.8-3.3-2.2-4.4  c-1.6-1.4-3.3-1.9-5.5-1.9c-2.7,0-4.7,1.1-6.3,3.3c-1.4,1.9-2.2,4.7-2.2,8c0,3.8,0.8,6.9,2.2,9.3c1.6,2.2,3.6,3.6,6.3,3.6  c1.9,0,3.8-0.8,5.2-2.2c1.6-1.4,2.5-2.7,2.5-4.7h11c0,4.7-1.9,8.8-5.8,11.8C251.8,235.7,247.7,237.3,242.7,237.3L242.7,237.3z   M268.6,179.9h11v19.8c1.4-1.9,3.3-3.3,5.5-4.1c2.2-0.5,4.7-1.1,7.1-1.1c3.6,0,6.9,1.1,9.6,3.3c2.7,1.9,4.1,4.9,4.1,8.2v30.5h-10.7  v-25.8c0-2.2-0.8-3.8-1.9-4.9c-1.1-1.1-2.7-1.6-4.7-1.6c-2.2,0-4.4,0.5-6.3,1.9c-1.6,1.4-2.7,3-2.7,5.2v25.3h-11V179.9L268.6,179.9  z M341.4,223.3h10.7c-0.8,4.7-3.3,8-7.1,10.7c-3.3,2.2-7.4,3.3-12.1,3.3c-5.8,0-10.4-2.2-14.3-6.3c-3.8-4.1-5.5-9.3-5.5-15.9  c0-5.8,1.6-10.7,5.5-14.6c3.6-3.8,8.5-6,14.3-6c8,0,13.5,3,16.5,8.8c1.4,1.9,2.2,4.4,2.7,6.9c0.5,2.7,0.5,5.5,0.5,8.5h-28.6  c0,2.2,0.8,4.1,2.5,6c1.6,2.2,3.8,3.3,6.3,3.3c1.9,0,3.6-0.5,5.2-1.1C339.5,226,340.6,224.9,341.4,223.3L341.4,223.3z M324.1,211.5  h17.3c0-1.9-1.1-3.8-2.7-5.2c-1.6-1.6-3.6-2.5-5.8-2.5c-2.2,0-4.4,0.8-6,2.5C325.2,207.6,324.1,209.5,324.1,211.5L324.1,211.5z   M379.9,236.5v-56.6h28.9c4.1,0,7.7,1.4,10.4,4.4c3,3,4.7,6.6,4.7,11c0,2.5-0.6,4.7-1.6,6.9c-1.4,2.2-3.3,3.8-5.5,4.9  c2.7,1.1,4.9,3,6.9,5.2c1.6,2.5,2.5,4.9,2.5,7.7c0,4.7-1.6,8.5-4.7,11.5c-3,3.3-6.3,4.9-10.7,4.9H379.9L379.9,236.5z M391.4,190  v12.1h14c1.9,0,3.6-0.5,4.9-1.6c1.4-1.1,1.9-2.5,1.9-4.1c0-1.9-0.5-3.3-1.9-4.7c-1.4-1.1-2.7-1.6-4.7-1.6H391.4L391.4,190z   M391.4,212.3v14h14.8c2.2,0,3.8-0.5,5.5-2.2c1.4-1.4,2.2-3,2.2-4.9s-0.8-3.6-2.2-4.9c-1.6-1.4-3.3-1.9-5.5-1.9H391.4L391.4,212.3z   M445.3,207.6h-11c0-4.4,1.9-7.7,5.5-10.2c3.3-1.9,7.1-3,11.8-3c6.3,0,11,1.1,14,3c2.5,1.9,3.8,4.1,3.8,7.1v25.3  c0,2.5,0.8,4.7,2.5,6.6h-11.3c-0.5-0.8-1.1-1.4-1.4-2.2c-0.3-0.5-0.5-1.4-0.8-2.5c-1.4,1.9-3.3,3.3-5.5,4.1  c-1.9,0.8-4.4,1.4-7.4,1.4c-3.8,0-6.9-1.4-9.1-3.6c-2.5-2.5-3.8-5.5-3.8-8.8c0-3.3,1.1-6.3,3-8.5c1.9-2.2,4.7-3.6,8.2-4.1  c6.3-1.1,9.3-1.6,9.6-1.6c3.3-0.8,4.9-1.9,4.9-3c0-1.6-0.5-3-1.9-3.6c-1.1-0.8-2.7-1.1-4.9-1.1c-1.9,0-3.3,0.5-4.7,1.1  C445.8,204.9,445.3,206,445.3,207.6L445.3,207.6z M458.5,222.5v-6.3c-3.6,0.6-6.3,1.4-8.5,1.9c-4.1,1.1-6,3-6,5.5  c0,1.9,0.3,3,1.4,3.8c1.1,0.8,2.5,1.1,4.4,1.1c1.9,0,3.8-0.6,5.5-1.6C456.8,226,457.9,224.4,458.5,222.5L458.5,222.5z M479.1,195.3  h11v4.7c1.4-1.6,3-3,5.2-4.1c2.5-0.8,4.7-1.4,6.6-1.4c3.8,0,6.9,1.1,9.6,2.7c2.7,2.2,4.4,4.9,4.4,8.2v31.1h-11v-27.2  c0-1.6-0.5-3-1.6-3.8c-1.4-1.1-2.7-1.4-4.4-1.4c-2.2,0-3.8,0.3-5.2,1.1c-1.4,1.1-2.5,2.2-3.6,4.1v27.2h-11V195.3L479.1,195.3z   M524.7,179.9h11v30.2l12.6-14.8h13.2l-13.5,15.7l14.8,25.6H550l-9.3-17.6l-4.9,5.2v12.4h-11V179.9L524.7,179.9z"></path></g></svg>