<svg xmlns="http://www.w3.org/2000/svg" xmlns:xlink="http://www.w3.org/1999/xlink" id="Layer_1" x="0px" y="0px" viewBox="0 0 200 96" style="enable-background:new 0 0 200 96;" xml:space="preserve"><style type="text/css">	.st0{fill-rule:evenodd;clip-rule:evenodd;}</style><g>	<path class="st0" d="M100,20.1c1.3,0.1,2.5,0.6,3.5,1.4c1.3,1.2,1.7,3.3,1,5c-2.4,5-8.2,8.3-12.1,9.4c-2.3,0.6-5.3,0.6-7.5-0.3  c-1,0.6-1.9,2.6-3.2,1.8c-1.8-1.4-0.2-3.7-1.3-5.3c-0.2-0.3-0.8-0.4-1-0.9c-1.4-3.2,0.3-6.2,2.3-8.6C85.1,18.9,94.6,14.7,100,20.1  L100,20.1L100,20.1L100,20.1z M88.8,22.6c-1.9,0.3-4,1.2-5.1,2.5c-1.1,1.3-1.9,2.6-1.2,4c2.4-1.8,3.6-4.3,6.3-5.8  C88.8,23,89.3,22.8,88.8,22.6L88.8,22.6L88.8,22.6L88.8,22.6z M100.1,23.3c-4.8-0.4-8.4,3.2-11.7,6.6c-0.2,0.6-1.4,1.2-0.5,1.8  c4.6,0.4,8.9-0.9,12.2-3.9c1-0.9,1.7-2.1,1.2-3.3C101.1,24,100.6,23.5,100.1,23.3L100.1,23.3L100.1,23.3L100.1,23.3z"></path>	<path class="st0" d="M141.4,43.9c2.2,5.4,4.1,13.9,0,19c-1.1,1.2-3,2.4-4.3,1.4c-4.6-3.7-6.5-8.9-9.3-13.6  c-0.4-0.2-0.4,0.3-0.6,0.6c-1,4.8,0.9,11-2.3,14.7c-1.2,0.2-2.4-0.4-2.8-1.7c-1.6-4.9,0.1-10,0.5-14.9c1-2.5,1.4-5.4,3.5-7.2  c3.5,1.4,5.1,5.2,7.1,8.1c1.4,2.1,2.6,4.6,4.3,6.5c1.4-0.6,0.7-2.5,0.7-3.7c-0.6-4.5-1.8-8.6-3-12.9c-0.1-1.1-0.7-3,0.5-3.7  C138.7,37.9,140,41.2,141.4,43.9L141.4,43.9L141.4,43.9L141.4,43.9z"></path>	<path class="st0" d="M120.5,42.2c0,1-0.8,2.3-1.5,2.5c-6.6,1-14,0.4-20.2,2.5c-0.2,0.8,0.7,0.9,1.2,1.1c5.3,0.8,10.9,1,16.1,2.3  c2.7,0.7,3.7,3.9,3.9,6.6c0.1,2.1-0.7,4.7-2.8,6.1c-5.1,3.2-12.9,3.1-18.1,0.1c-2-1.1-3.9-2.9-4-5.1c0-1.8,0.8-3.1,2-3.8  c5-2,11.1-0.9,15.4,1.7c0.3,1.4-1.2,1.3-1.9,1.8c-4.8,2.8-8.4-3.1-12.8-1c-0.6,0.4-1.1,1.6-0.3,1.9c5.5,2.4,11.5,0.7,16.9-0.8  c0.6-0.2,1.4-0.8,1.4-1.4c-0.2-2.2-2.7-2.7-4.3-3.3c-4.7-1.2-9.9-1.2-14.9-1.7c-1-0.2-2.2-0.9-2.5-1.7c-0.6-1.7-0.6-3.9,0.7-5.3  c6.4-5.7,16.2-5.2,24.3-3.7C119.7,41.4,120.3,41.6,120.5,42.2L120.5,42.2L120.5,42.2L120.5,42.2z"></path>	<path class="st0" d="M90.4,44.8c0.6,6.6,1,12.8,0.8,19.7c-0.1,0.9-1.2,1.1-1.9,1.4c-1.1,0.2-2.5,0-3-0.6c-1.6-2.6-1-6-1.2-9.1  c0.2-4.9,0.1-10.2,1.5-14.8c0.3-0.7,1-1.2,1.7-0.8C90,41.5,90.3,43.2,90.4,44.8L90.4,44.8L90.4,44.8L90.4,44.8z"></path>	<path class="st0" d="M167,43.9c0.3,0.6,0.7,1.4,0,1.8c-3.1,1.4-7.3,0.8-10.9,1.2c-1,0.8-1.7,2.2-1.4,3.5c0.3,0.2,0.7,0.5,1,0.5  c2.2,0.1,5.5-1,7,1c0.4,0.6,0,2.9-1,3c-2.7,0.3-7.1-0.3-8.4,0.3c-1.7,1.1-1.5,3.2-2.1,5c1.2,0.8,2.4,0,3.8-0.2  c2.6-0.4,5.4-1.2,7.9-0.6c0.5,0.9,1.2,1.9,0.7,3c-4.3,3.5-10,7-15.9,4.5c-2.2-1-3.2-4.4-2.5-7.3c0.5-2.1,2.6-4.1,1.3-6.3  c-0.2-1,0.3-1.8,1.2-2c2.3,0,1.8-2.8,3-4.1c-1.3-1.4-4.6-1.4-4.3-4.3c1.6-0.8,3.5-0.6,5.3-0.8c4.1-0.8,8.6-1.3,12.8-0.8  C165.2,41.2,166.4,42.8,167,43.9L167,43.9L167,43.9L167,43.9z"></path>	<path class="st0" d="M68.5,28.1c6.4,5.2,14.6,14.1,13.6,24.3c-1.2,8.1-9.8,14.1-17,16.1c-7,2.1-15.9,1.9-23.1,0.2  c-0.5,1.3-1,2.9-2.5,3.5c-1,0.3-2.2,0.1-3-0.5c-2.1-2-0.4-5.9-3.5-7.1C26.9,62,20.4,57,17.3,50.8c-0.4-1.2,0.1-2.5,0.8-3.5  c4.8-3.8,10.8-5.3,16.8-6.5c0.3,0.1,0.2-0.3,0.5-0.5c0.3-4.1,0.5-8.4,1.8-12.1c0.3-0.5,1-0.7,1.5-0.3c3.8,2.9,2,8.4,3.7,12.3  c7.2,0.3,14.5,0.7,20.2,4.8c1.9,1.6,2.4,4.6,1.8,6.3c-0.6,1.7-2.6,3-4.5,3.1c-1.2,0-3.6,0.1-3.5-0.8s4.2-2.5,3-3.8  c-1.8-1.9-10.8-3-16.4-3.7c-0.7-0.1-1.3,0.1-1.3,0.8c-0.1,5.2-0.6,11,0.3,16.1c0.1,0.3,0.5,0.8,0.8,0.8c9.9,1.6,20.3,0.7,28-5  c3.6-2.9,4.8-7,4.1-11.5c-3.1-12.5-16.2-20-26.8-24.8c-10.4-4.6-21.9-6.9-34.3-6.3c-2,0.1-5.1,0.8-5.1,1.5s3.5,0.5,3.1,1.8  c-0.4,1.3-4,0.5-5.1,0.2C5.6,19.5,5.7,18,6,17c2.7-4.8,10.2-5.1,13.6-5.3C38.4,11.2,56.5,18.4,68.5,28.1L68.5,28.1L68.5,28.1  L68.5,28.1z M34.7,46.6c-4.8,0.1-9.8,0.6-14.2,2.2c-0.9,0.3-2,1.3-1.3,2.5c1.8,2.4,4.4,4.4,6.8,5.8c2.4,1.4,5.6,3.2,8.5,3.6  c0.7-4.5,0.7-8.9,0.6-13.5C34.7,47,35,46.8,34.7,46.6L34.7,46.6L34.7,46.6L34.7,46.6z"></path>	<path class="st0" d="M177.3,40.3c-0.2,6-5.8,9.7-5.8,15.7c0.2,0.2,0.3,0.5,0.6,0.3c4.5-4.9,8.9-11.9,15.5-13.9  c1.7-0.1,3.3,1.4,3.9,2.5c2.3,4.6,1.7,11-1.4,15.1c-3.3,4.1-9,8.1-15.5,7.5c-2.7,6.6-4.6,13.6-5.6,20.8c-0.6,1.4-1.9,0.1-2.7-0.1  c-5.6-4.4-1-16.1-0.6-17.6c0.4-1.5,1.9-5,3-7.9c-2.6-4.7-1-10.4,1.2-14.7c1.7-2.9,3.9-5.8,6.6-8C176.8,40,177.1,40.1,177.3,40.3  L177.3,40.3L177.3,40.3L177.3,40.3z M188.4,47.8c-0.8-0.1-1.2,1-1.9,1.2c-3.2,3.6-6.3,7.2-7.9,11.5c2.1,0.3,3.9-1.1,5.8-1.9  c3.2-2,5.2-5.3,5-9.1C189.3,48.8,188.7,48.4,188.4,47.8L188.4,47.8L188.4,47.8L188.4,47.8z"></path></g></svg>