<svg xmlns="http://www.w3.org/2000/svg" xmlns:xlink="http://www.w3.org/1999/xlink" id="Layer_1" x="0px" y="0px" viewBox="0 0 1743 399" style="enable-background:new 0 0 1743 399;" xml:space="preserve"><style type="text/css">	.st0{fill-rule:evenodd;clip-rule:evenodd;fill:#553B14;}</style><path class="st0" d="M244.1,203l80.3,102.4c40.5,50.9,130.6,74.2,195.6,49.1l0.6,0.6c-74.2,39.2-172.3,19.6-234.2-30.7 c-43.5-34.3-68.7-82.2-105.5-121.4v80.9c0,6.7,4.3,11.7,4.3,11.7h-31.9c0,0,4.3-4.9,4.3-11.7V92.6C188.3,129.4,214,164.4,244.1,203 L244.1,203z"></path><path class="st0" d="M1631.1,298.6c-12.9,0-97.5-2.5-97.5-99.3c0.6-96.3,84-97.5,97.5-97.5c12.9,0,96.9,1.2,96.9,97.5 c0,96.9-84.6,99.3-97.5,99.3H1631.1L1631.1,298.6z M1631.1,272.3c5.5,0,44.8,1.8,44.1-76.6c0-72.4-38-69.9-44.1-69.9l0,0 c-6.1,0-44.8-2.5-44.8,69.9c-0.6,78.5,38.6,76.6,44.1,76.6H1631.1L1631.1,272.3z"></path><path class="st0" d="M1509.7,112.8v23.9c-10.4-4.3-15.9-7.4-26.4-9.8c-8-1.8-43.5-10.4-60.1,7.4c-7.4,7.4-9.8,20.2,4.9,30.7 c19.6,12.9,48.4,19,71.7,38c15.3,12.3,20.2,26.4,16.6,48.4c-4.3,22.1-28.2,39.9-50.3,44.8c-31.3,6.1-67.5,3.1-95.7-8.6v-23.9 c26.4,11,66.8,25.1,92,3.1c6.7-6.1,11-15.3,7.4-24.5c-5.5-17.2-52.1-27.6-80.9-48.4c-28.2-17.8-25.8-47.2-15.3-63.8 C1400,90.2,1467.4,101.2,1509.7,112.8L1509.7,112.8z"></path><path class="st0" d="M1346.6,112.8v23.9c-9.8-4.3-15.3-7.4-25.8-9.8c-8.6-1.8-43.5-10.4-60.7,7.4c-7.4,7.4-9.2,20.2,4.9,30.7 c20.2,12.9,48.4,19,72.4,38c15.3,12.3,20.2,26.4,15.9,48.4c-3.7,22.1-28.2,39.9-49.7,44.8c-31.9,6.1-67.5,3.1-95.7-8.6v-23.9 c25.8,11,66.2,25.1,91.4,3.1c6.7-6.1,11-15.3,7.4-24.5c-5.5-17.2-52.1-27.6-80.3-48.4c-28.2-17.8-25.8-47.2-15.9-63.8 C1236.8,90.2,1304.3,101.2,1346.6,112.8L1346.6,112.8z"></path><path class="st0" d="M680.1,112.8v23.9c-10.4-4.3-15.9-7.4-26.4-9.8c-8-1.8-43.5-10.4-60.1,7.4c-7.4,7.4-9.8,20.2,4.9,30.7 c19.6,12.9,48.4,19,71.7,38c15.3,12.3,20.2,26.4,16.6,48.4c-4.3,22.1-28.2,39.9-50.3,44.8c-31.3,6.1-67.5,3.1-95.7-8.6l0.6-23.9 c25.8,11,66.2,25.1,91.4,3.1c6.7-6.1,11-15.3,7.4-24.5c-5.5-17.2-52.1-27.6-80.9-48.4C531,176,534.1,146.6,543.9,130 C570.3,90.2,637.7,101.2,680.1,112.8L680.1,112.8z"></path><path class="st0" d="M263.7,197.5c29.4,38.6,55.8,74.2,86.5,110.4V116.5c0-6.7,4.3-11.7,4.3-11.7h-32.5c0,0,4.9,4.9,4.9,11.7v80.9 c-27.6-28.8-48.4-63.2-75.4-92.6c-3.1-4.3-26.4-28.8-33.1-35C169.9,22.7,92,3.7,19,35l0.6,1.2c25.1-8.6,60.7-8,96.3,6.1 c22.7,8.6,41.7,20.2,60.7,43.5C181.5,92,263.7,197.5,263.7,197.5L263.7,197.5z"></path><path class="st0" d="M439.7,276.6c25.8,2.5,57-1.8,82.2-2.5v21.5H385.7c0,0,4.3-4.3,4.3-11.7V116.5c0-7.4-4.3-11.7-4.3-11.7h136.1 v21.5c-25.1-0.6-56.4-4.9-82.2-1.8c0,0,0,58.9,0,62.5c20.8,1.8,46,1.8,65.6-0.6v22.7c-19.6-1.8-44.8-2.5-65.6-1.2v7.4V276.6 L439.7,276.6z"></path><path class="st0" d="M1107.5,276.6c25.8,2.5,57-1.8,82.2-2.5v21.5h-136.1c0,0,4.3-4.3,4.3-11.7V116.5c0-7.4-4.3-11.7-4.3-11.7h136.1 v21.5c-25.1-0.6-56.4-4.9-82.2-1.8c0,0,0,58.9,0,62.5c20.8,1.8,46,1.8,65.6-0.6v22.7c-19.6-1.8-44.8-2.5-65.6-1.2v7.4V276.6 L1107.5,276.6z"></path><path class="st0" d="M922.3,217.1v66.8c0,7.4,4.3,11.7,4.3,11.7h-57.6c0,0,4.3-4.3,4.3-11.7V116.5c0-7.4-4.3-11.7-4.3-11.7h98.7 c27,1.2,55.8,15.9,56.4,48.4c0,26.4-11.7,41.7-28.8,50.3c-3.7,1.2-3.1,0.6-4.3,1.8c12.3,28.8,23.9,50.3,38.6,78.5 c3.1,7.4,9.2,11.7,9.2,11.7h-60.1c0,0,3.7-4.3,0-11.7c0,0-21.5-50.3-31.3-66.8H922.3L922.3,217.1z M922.3,128.8v64.4 c16.6,0,36.2,2.5,47.8-11c9.2-12.9,8-29.4,1.2-41.1C960.3,122,922.3,128.8,922.3,128.8L922.3,128.8z"></path><path class="st0" d="M759.8,283.9c0,7.4,4.3,11.7,4.3,11.7h-58.3c0,0,4.3-4.3,4.3-11.7V116.5c0-7.4-4.3-11.7-4.3-11.7h96.3 c23.9,0.6,42.3,11.7,50.3,35c6.1,20.9,4.9,47.2-9.2,63.8c-19.6,26.4-84,22.1-84,22.1L759.8,283.9L759.8,283.9z M759.2,129.4v71.1 c16.6,1.2,36.2,3.1,47.8-9.8c9.8-12.9,8-38,1.2-49.7C797.2,122,759.2,129.4,759.2,129.4L759.2,129.4z"></path></svg>