<svg xmlns="http://www.w3.org/2000/svg" xmlns:xlink="http://www.w3.org/1999/xlink" id="Layer_1" x="0px" y="0px" viewBox="0 0 843.3 298.7" style="enable-background:new 0 0 843.3 298.7;" xml:space="preserve"><style type="text/css">	.st0{fill-rule:evenodd;clip-rule:evenodd;fill:#0572CC;}	.st1{fill:#0572CC;}	.st2{font-family:'MyriadPro-Regular';}	.st3{font-size:134.4px;}</style><g>	<path class="st0" d="M691.1,31.2c-10.1-10.1-23.5-16.8-46.5-17.4c-14.6-0.6-16.8,0-61.6,1.1v34.7v121.5h40.3v-33.6  c9.5,0,15.1,0.6,21.3-0.6c54.9-2.8,62.7-48.2,62.7-60.5C707.9,55.9,700.6,40.7,691.1,31.2L691.1,31.2z M663.7,76.6  c-1.1,20.7-17.9,27.4-39.8,25.8v5.6V49.7C644.1,46.3,664.2,53.6,663.7,76.6L663.7,76.6z"></path>	<path class="st0" d="M768.9,69.9l33,11.8c22.4,9,26.9,26.3,26.9,42c-0.6,35.3-28.6,48.7-51,50.4c-25.8,2.2-45.4-2.2-52.1-3.4V132  c20.2,6.2,43.7,6.2,51.5,2.8c6.2-2.2,10.6-6.2,10.1-10.6c0-2.8-0.6-5.6-7.8-9L748.8,104c-19.6-7.3-27.4-25.8-26.3-42.6  c1.7-33.6,28.6-51,55.4-49.8c8.4,0.6,19.6,0,35.8,2.2v38.1c-17.9-4.5-26.9-3.9-35.8-2.8c-10.6,1.1-15.1,6.7-15.1,12.3  C762.2,65.4,765.6,68.7,768.9,69.9L768.9,69.9L768.9,69.9z"></path>	<polygon class="st0" points="201.1,73.2 244.8,73.2 244.8,15 285.1,15 285.1,171.2 244.8,171.2 244.8,108.5 201.1,108.5   201.1,171.2 160.2,171.2 160.2,15 201.1,15  "></polygon>	<polygon class="st0" points="363.5,171.2 363.5,15 323.2,15 323.2,171.2  "></polygon>	<polygon class="st0" points="544.4,171.2 544.4,15 504.1,15 504.1,171.2  "></polygon>	<polygon class="st0" points="442.5,135.9 483.9,135.9 483.9,171.2 401.6,171.2 401.6,15 442.5,15  "></polygon>	<path class="st0" d="M123.8,31.2c-10.1-10.1-23.5-16.8-46.5-17.4c-14.6-0.6-16.8,0-61.6,1.1v34.7v121.5h40.9v-33.6  c9.5,0,15.1,0.6,21.3-0.6c54.9-2.2,62.7-47.6,62.7-59.9C141.2,55.9,133.3,40.7,123.8,31.2L123.8,31.2z M96.4,76.6  c-1.1,20.7-17.9,27.4-39.8,25.8v5.6V49.7C77.3,46.3,97.5,53.6,96.4,76.6L96.4,76.6z"></path></g><text transform="matrix(1 0 0 1 120.874 288.4497)" class="st1 st2 st3">Healthcare</text></svg>