<svg xmlns="http://www.w3.org/2000/svg" xmlns:xlink="http://www.w3.org/1999/xlink" id="Layer_1" x="0px" y="0px" viewBox="0 0 1083 394" style="enable-background:new 0 0 1083 394;" xml:space="preserve"><style type="text/css">	.st0{fill-rule:evenodd;clip-rule:evenodd;fill:#D9158D;}</style><g>	<path class="st0" d="M345.9,107.9v-0.4c0.4-5.7,0.4-11.3-0.7-17c-6.4-35.8-47.9-54.6-98.2-56.4c-54.6-2.5-150.7,23-192.9,62.8  c-12.1,11.3-12.4,18.4-6,24.8c10.3,10.3,30.5,5.3,42.9-3.9c8.2-6.7,6.7-13.5,16-19.9c15.6-10.6,41.8-23.8,65.2-31.2  C110.5,139.5,62.9,257.5,39.2,337c-2.1,8.2,2.1,16.7,9.2,19.2c12.8,4.3,30.1,1.8,36.9-5.7c3.9-5,1.4-9.2-0.7-14.9  c-3.2-7.1,35.1-104.2,44.7-125.2c7.1,2.5,14.9,6.7,23.4,7.8c47.5,4.6,105.3-1.1,153.5-42.5C318.6,163.2,342.7,143,345.9,107.9  L345.9,107.9z M189.5,191.9c-21.6,2.1-48.6-1.8-44.7-16v-0.3c18.4-37.2,36.5-64.5,61.7-101.4c2.5-4.3,0-8.5-2.8-9.6  c-5-1.8-9.9-2.8-16.7-2.8c99.6-27.7,135.1,28.7,114.9,66.7C279.9,169.6,226.8,188,189.5,191.9L189.5,191.9z"></path>	<path class="st0" d="M807.5,148.3c-1.4-5.3-4.6-7.1-10.3-7.1h-35.5l23.8-30.5c2.1-3.2-2.1-6.7-3.5-7.8c-8.2-1.8-19.9-2.5-27.3-0.3  c-4.6,1.1-11.3,5-14.2,8.2c-6.7,7.1-14.9,18.1-23,30.8l-0.4,0.4h-17.7c-3.9,0-7.8,1.1-11.3,4.3c-5,4.6-7.1,11.3-6.7,13.1  c1.8,5.3,4.6,7.4,10.6,7.4h9.6c-11.7,19.5-29.4,51.4-35.1,62.4c-18.8,36.5,3.9,57.1,28.7,63.5c42.5,10.3,64.5-13.5,56-29.8  c-3.5-6.7-9.9-6.4-14.5-3.2c-5.3,3.9-11.3,8.2-18.8,8.2c-7.1,0.4-15.6-6.4-17.4-13.8c-2.8-12.1,29.1-71.6,41.5-87.6h47.5  c3.9,0,7.8-0.7,11.4-4.3C805.8,157.6,808.2,150.1,807.5,148.3L807.5,148.3z"></path>	<path class="st0" d="M1021,291.2c10.6,2.5,20.6,2.8,28.4-3.2c7.5-7.1,7.8-17.7-0.3-23.8c-11-8.5-14.2-0.7-22.7-3.5  c-7.4-2.8-23.8-17.4-31.6-29.8c-3.2-5.3-6-12.1-7.4-14.2c34-21.3,53.2-34.7,64.9-45c5-4.3,6.4-10.3,5-14.9c-1.1-3.9-5-11-8.9-13.8  c-4.6-3.5-10.3-3.2-14.5,0.4c-13.8,11.3-30.5,25.2-59.9,44.7c-2.5-6.7-13.5-34-15.9-40.1c-2.8-5.3-8.9-6.7-11.7-6.7  c-6.7-0.7-14.9,0.7-20.2,2.8c-5.3,2.1-7.4,5-7.1,7.1c0.4,3.2,10.3,30.5,22.7,57.1c-9.9,7.1-19.5,13.5-29.8,20.2  c-16,9.2-31.2,17.7-43.6,23.4c-1.4,0.7-5.3,2.5-5.7,2.5c-30.5,12.8-67.4,9.2-70.6-8.5c67-14.9,91.1-35.1,108.5-53.5  c16.7-17.4,13.8-40.1,2.8-45.7c-39-20.9-128,21.6-148.9,74.8c-7.8,19.9-3.2,46.4,19.9,59.2c50.3,28.4,117.7-1.1,170.2-36.9  c3.9-2.5,7.4-5,11.7-7.8c2.1,3.9,6,10.3,8.2,13.5C979.5,274.2,1002.5,287.3,1021,291.2L1021,291.2z M873.5,168.2  c12.8,8.9-35.1,42.9-79.4,55C805,195.1,860.4,159.3,873.5,168.2L873.5,168.2z"></path>	<path class="st0" d="M673.2,146.9c-6-5-14.2-6.7-20.6-5.7c-5,0.3-8.9,2.8-10.6,6.4c-23.8,44.3-40.4,76.6-55.3,96.1  c-18.1,22.3-41.5,23-41.1,11.4c1.4-20.2,30.5-67.7,49.6-95c2.8-4.3,2.1-9.6-2.1-13.1c-3.9-2.8-12.1-5.3-16.7-5.7  c-5-0.4-11.3,1.8-15.2,7.1c-18.8,25.2-52.1,89.7-50,109.9c-4.6,6.4-14.9,12.1-24.5,10.3c-6-1.4-11-6.4-9.2-12.8l33.7-74.1  c2.1-4.6,0-8.5-5-9.6c-4.3-1.1-12.8-2.1-17.7-1.8c4.6-1.8,14.2-3.2,19.5-3.9c4.3-1.4,6-4.3,5.7-7.4c0-3.2-3.5-9.6-6.4-13.1  c-1.8-2.1-6-4.6-9.6-4.3c-10.3,0.7-46.8,2.5-85.8,29.8c-28.7,19.5-48.9,48.9-49.3,74.8c-5.3,7.4-14.9,20.6-27.3,24.1  c-14.9,4.3-13.5-12.8-5.7-30.8c24.5-52.1,54.6-99.3,89.3-147.5c2.8-4.3,2.8-8.9-4.6-11c-6.4-1.1-16-1.8-23-0.4  c-3.9,0.4-7.8,3.9-9.2,5.7c-8.5,11-22.7,31.9-37.2,54.3c-15.2,23-36.9,61.7-42.5,72.3c-11.7,24.8-19.2,46.8-16,58.9  c3.2,12.1,17.7,21.6,34.4,20.6c16.3-1.1,30.9-9.9,45.4-25.2c0,0,22.3,48.2,77.3,9.6c6.4,17.7,42.9,23,72-5  c12.4,23.4,38.3,27.3,69.5,3.2c1.4-0.7,2.8-1.8,4.6-3.2c-7.1,15.6-13.1,24.8-19.1,33.7c-7.4,9.9-20.6,26.2-42.6,25.9  c-5.3-0.4-10.3-2.8-14.9-4.6c-5-2.1-10.3-1.8-12.8,3.5c-0.3,0.7-0.3,1.4-0.7,2.1c-2.8,10.3,5.7,21.3,20.9,24.8  c3.9,0.7,8.2,1.1,12.8,0.7c33.3,0.3,52.1-18.4,67-41.1c14.2-21.3,35.8-77.3,35.8-77.3s17.7-39.7,41.1-79.4  C679.5,155.8,677.8,150.8,673.2,146.9L673.2,146.9z M435.6,250.1c-17.4,24.1-44.7,11.3-31.2-20.2c12.8-29.1,50.3-51.8,75.5-57.1  C464.7,200.8,451.6,227.8,435.6,250.1L435.6,250.1z"></path></g></svg>