<svg xmlns="http://www.w3.org/2000/svg" xmlns:xlink="http://www.w3.org/1999/xlink" id="Layer_1" x="0px" y="0px" viewBox="0 0 471.2 332.7" style="enable-background:new 0 0 471.2 332.7;" xml:space="preserve"><style type="text/css">	.st0{fill:#236CB4;}</style><g>	<path class="st0" d="M193.7,144.6c-2.9,0-4.9,1.1-6.3,3.2c-0.9,1.4-1.4,3.1-1.8,5.2h15.6c-0.2-2-0.5-3.8-1.4-5.2  C198.6,145.8,196.6,144.6,193.7,144.6z"></path>	<path class="st0" d="M282.1,144.7c-2.9,0-4.9,1-6.3,3.1c-1.4,2-2,5-2,8.8s0.7,6.7,2,8.8c1.4,2,3.4,3.1,6.3,3.1c2.9,0,4.9-1,6.3-3.1  c1.4-2.1,2.1-5.1,2.1-8.8c0-3.7-0.7-6.7-2.1-8.8C287,145.8,285,144.7,282.1,144.7z"></path>	<path class="st0" d="M138.2,158.9c-1.4,0.9-2,2.3-2,4.2c0,1.2,0.3,2.2,0.7,2.9c0.3,0.4,0.4,0.6,1.3,1.3c0,0,2,1.5,6.5,1.3  c3.1-0.2,5.9-0.8,5.9-0.8v-10c0,0-2.8-0.5-5.9-0.5C140.1,157.3,138.2,158.9,138.2,158.9z"></path>	<path class="st0" d="M369.7,144.6c-2.9,0-4.9,1.1-6.3,3.2c-0.8,1.4-1.4,3.1-1.8,5.2h15.6c-0.2-2-0.5-3.8-1.4-5.2  C374.4,145.8,372.6,144.6,369.7,144.6z"></path>	<path class="st0" d="M341.4,68c-11.7,0-22.9,2.6-33.1,7.1c-11.6-20.7-33.5-34.7-58.5-34.7c-18.8,0-35.9,7.9-48,20.7  c-13.4-17.6-34.7-28.9-58.6-28.9c-40.6,0-73.6,32.9-73.6,73.5c0,10.4,2.1,20.3,6,29.2c-18.9,11-31.6,31.7-31.6,55.3  c0,35.3,28.3,63.9,63.2,63.9c4.4,0,8.8-0.5,13-1.4c9.6,26,34.6,44.6,63.9,44.6c28.1,0,52.4-17.1,62.7-41.6c7.9,3.8,16.7,6,26.1,6  c22.4,0,41.9-12.3,52.1-30.6c5.2,1,10.6,1.6,16.1,1.6c45.1,0,81.7-36.9,81.7-82.4C423.1,104.9,386.5,68,341.4,68z M125.2,163.7  c0,6.6-4.8,10.8-12.6,10.8c-3.8,0-7.5-0.6-11.3-2.6c-0.8-0.4-1.4-0.8-2.1-1.3c-0.1-0.1-0.4-0.3-0.2-0.9l1.5-4.2  c0.3-0.8,0.8-0.5,1-0.3c0.4,0.3,0.8,0.5,1.3,0.9c4.5,2.9,8.7,2.9,10,2.9c3.4,0,5.4-1.8,5.4-4.2v-0.2c0-2.6-3.2-3.7-7-4.8l-0.8-0.3  c-5.1-1.4-10.6-3.6-10.6-10v-0.2c0-6.1,4.9-10.5,12.1-10.5h0.8c4.2,0,8.2,1.2,11.1,3c0.3,0.2,0.5,0.5,0.3,0.9s-1.4,3.8-1.6,4.2  c-0.3,0.8-1,0.3-1,0.3c-2.5-1.4-6.5-2.6-9.9-2.6c-3,0-4.9,1.6-4.9,3.7v0.2c0,2.6,3.3,3.7,7.1,4.8l0.7,0.2  C119.7,155.2,125.1,157.4,125.2,163.7L125.2,163.7L125.2,163.7z M157.1,172.3c0,0-0.9,0.3-1.5,0.4c-0.8,0.2-3.4,0.7-5.5,1.1  c-2.2,0.3-4.4,0.6-6.7,0.6c-2.1,0-4.1-0.2-5.8-0.6c-1.8-0.4-3.2-1-4.5-2c-1.2-0.8-2.2-2-2.9-3.4c-0.7-1.4-1-3.1-1-5  c0-1.9,0.4-3.6,1.2-5.1c0.8-1.4,1.9-2.6,3.1-3.7c1.4-0.9,2.9-1.7,4.6-2.1s3.6-0.7,5.4-0.7c1.4,0,2.6,0,3.4,0.1c0,0,1.7,0.2,3.7,0.4  v-0.9c0-2.9-0.6-4.3-1.8-5.3s-3.1-1.4-5.4-1.4c0,0-5.4-0.1-9.6,2.2c-0.2,0.1-0.3,0.2-0.3,0.2s-0.5,0.2-0.8-0.3l-1.5-4.2  c-0.3-0.6,0.2-0.9,0.2-0.9c2-1.5,6.8-2.5,6.8-2.5c1.6-0.3,4.2-0.5,5.9-0.5c4.4,0,7.8,1,10.1,3.1c2.3,2,3.5,5.3,3.5,9.7v20.1  C157.6,171.6,157.6,172.2,157.1,172.3z M171.8,173c0,0.3-0.3,0.7-0.6,0.7h-5.9c-0.3,0-0.6-0.3-0.6-0.7V126c0-0.3,0.3-0.7,0.6-0.7  h5.9c0.3,0,0.6,0.3,0.6,0.7V173z M208.2,157.8c-0.1,0.6-0.7,0.6-0.7,0.6h-21.9c0.2,3.3,0.9,5.7,2.5,7.3c1.6,1.6,4.1,2.6,7.5,2.6  c5.2,0,7.5-1,9-1.6c0,0,0.6-0.3,0.8,0.3l1.4,4c0.3,0.7,0.1,0.9-0.2,1c-1.4,0.8-4.8,2.2-11.1,2.2c-3.1,0-5.8-0.4-8-1.3  c-2.2-0.9-4.1-2.1-5.5-3.7c-1.4-1.5-2.6-3.5-3.1-5.6c-0.7-2.1-1-4.5-1-7.1c0-2.5,0.3-4.8,0.9-7c0.7-2.2,1.6-4.1,3-5.7  c1.4-1.6,3.1-2.9,5.1-3.8c2-0.9,4.5-1.4,7.2-1.4c2.4,0,4.5,0.5,6.3,1.3c1.4,0.6,2.7,1.6,4.2,3.1c0.8,0.9,2.3,3.1,2.8,5.1  C208.9,153.3,208.2,157.7,208.2,157.8z M226.4,174.5c-3.8,0-7.5-0.6-11.3-2.6c-0.8-0.4-1.4-0.8-2.1-1.3c-0.1-0.1-0.4-0.3-0.2-0.9  l1.5-4.2c0.3-0.7,0.9-0.4,1-0.3c0.4,0.3,0.8,0.5,1.3,0.9c4.5,2.9,8.7,2.9,10,2.9c3.4,0,5.4-1.8,5.4-4.2v-0.2c0-2.6-3.2-3.7-7-4.8  l-0.9-0.3c-5.1-1.4-10.6-3.6-10.6-10v-0.2c0-6.1,4.9-10.5,12.1-10.5h0.8c4.2,0,8.2,1.2,11.1,3c0.3,0.2,0.5,0.5,0.3,0.9  c-0.2,0.3-1.4,3.8-1.6,4.2c-0.3,0.8-1,0.3-1,0.3c-2.6-1.4-6.5-2.6-9.9-2.6c-3,0-4.9,1.6-4.9,3.7v0.2c0,2.6,3.3,3.7,7.1,4.8l0.7,0.2  c5.1,1.6,10.5,3.8,10.5,10v0.2C239,170.3,234.3,174.5,226.4,174.5z M264.8,144.7c-0.1,0.7-0.8,0.7-0.8,0.7h-7.1l-4.9,28  c-0.5,2.9-1.2,5.4-2,7.4c-0.8,2-1.6,3.5-2.9,4.9c-1.2,1.3-2.6,2.3-4.1,2.8c-1.5,0.5-3.4,0.9-5.4,0.9c-0.9,0-2,0-3.2-0.3  c-0.9-0.2-1.4-0.3-2-0.6c-0.3-0.1-0.5-0.4-0.3-0.8c0.2-0.4,1.4-4,1.6-4.5c0.3-0.6,0.8-0.3,0.8-0.3c0.4,0.2,0.7,0.3,1.2,0.3  c0.5,0.1,1.2,0.2,1.8,0.2c0.9,0,1.8-0.1,2.6-0.3c0.9-0.3,1.4-0.9,2-1.5c0.6-0.8,1-1.8,1.5-3.1c0.5-1.4,0.9-3.2,1.3-5.4l4.9-27.5  H245c-0.6,0-0.8-0.3-0.7-0.7l0.9-4.6c0.1-0.7,0.8-0.7,0.8-0.7h5l0.3-1.5c0.8-4.4,2.2-7.7,4.4-9.9c2.2-2.2,5.4-3.3,9.3-3.3  c1.1,0,2.1,0.1,3,0.3c0.9,0.2,1.4,0.3,2.2,0.5c0.2,0.1,0.6,0.3,0.4,0.8l-1.7,4.6c-0.2,0.3-0.3,0.6-0.9,0.3  c-0.2-0.1-0.4-0.2-1.1-0.3c-0.5-0.1-1.1-0.2-1.8-0.2c-0.9,0-1.7,0.1-2.4,0.3s-1.3,0.6-1.9,1.2c-0.5,0.5-1.2,1.4-1.5,2.4  c-0.9,2.3-1.1,4.8-1.2,4.9h7.1c0.6,0,0.8,0.3,0.7,0.7L264.8,144.7z M297,163.6c-0.6,2.1-1.6,4.1-3,5.6c-1.4,1.6-3,2.9-5,3.7  c-2,0.9-4.3,1.4-7,1.4s-5-0.4-7-1.4c-2-0.9-3.7-2.2-5-3.7c-1.4-1.6-2.3-3.5-3-5.6c-0.6-2.1-0.9-4.5-0.9-7c0-2.5,0.3-4.8,0.9-7  c0.6-2.1,1.6-4.1,3-5.6c1.4-1.6,3-2.9,5-3.8c2-0.9,4.3-1.4,7-1.4s4.9,0.5,7,1.4c2,0.9,3.7,2.2,5,3.8c1.4,1.6,2.3,3.5,3,5.6  c0.6,2.1,0.9,4.5,0.9,7C297.9,159.1,297.6,161.4,297,163.6z M324.1,140.7c-0.2,0.6-1.3,3.6-1.6,4.6c-0.2,0.3-0.3,0.7-0.9,0.6  c0,0-1.3-0.3-2.4-0.3c-0.8,0-2,0.1-3,0.4c-1,0.3-2,0.8-2.7,1.6s-1.4,1.9-2,3.2c-0.5,1.4-0.8,3.6-0.8,5.8V173c0,0.3-0.3,0.7-0.7,0.7  h-5.8c-0.3,0-0.7-0.3-0.7-0.7v-32.8c0-0.3,0.3-0.7,0.6-0.7h5.6c0.3,0,0.6,0.3,0.6,0.7v2.7c0.9-1.1,2.4-2.1,3.7-2.7  c1.4-0.6,2.9-1.1,5.7-0.9c1.4,0.1,3.3,0.5,3.7,0.6C323.9,139.9,324.3,140.1,324.1,140.7z M351.6,172.7c-2.5,0.9-5.9,1.6-9.2,1.6  c-5.6,0-9.9-1.6-12.8-4.8c-2.9-3.1-4.3-7.6-4.3-12.9c0-2.5,0.3-4.8,1-7c0.7-2.1,1.8-4.1,3.1-5.6c1.4-1.6,3.1-2.9,5.3-3.8  c2-0.9,4.5-1.4,7.2-1.4c1.8,0,3.5,0.1,4.8,0.3c1.5,0.3,3.5,0.8,4.3,1.1c0.2,0.1,0.6,0.3,0.4,0.8c-0.6,1.7-1,2.9-1.6,4.4  c-0.3,0.7-0.8,0.4-0.8,0.4c-2.1-0.7-4.2-1-6.9-1c-3.2,0-5.6,1.1-7.2,3.1c-1.6,2.1-2.5,4.8-2.5,8.6c0,4.1,1,7.1,2.8,8.8  c1.8,1.9,4.2,2.8,7.4,2.8c1.3,0,2.5-0.1,3.6-0.3c1.1-0.2,2-0.5,3.1-0.8c0,0,0.6-0.3,0.9,0.4l1.6,4.4  C352.1,172.4,351.6,172.7,351.6,172.7z M384.1,157.8c-0.1,0.6-0.7,0.6-0.7,0.6h-21.9c0.2,3.3,0.9,5.7,2.5,7.3  c1.6,1.6,4.1,2.6,7.5,2.6c5.2,0,7.5-1,9-1.6c0,0,0.6-0.3,0.9,0.3l1.4,4c0.3,0.7,0.1,0.9-0.2,1c-1.4,0.8-4.8,2.2-11,2.2  c-3.1,0-5.8-0.4-8-1.3c-2.2-0.9-4.1-2.1-5.5-3.7c-1.4-1.5-2.6-3.5-3.1-5.6c-0.7-2.1-1-4.5-1-7.1c0-2.5,0.3-4.8,0.9-7  c0.7-2.2,1.6-4.1,3-5.7c1.4-1.6,3.1-2.9,5.1-3.8c2-0.9,4.5-1.4,7.2-1.4c2.4,0,4.5,0.5,6.3,1.3c1.4,0.6,2.7,1.6,4.2,3.1  c0.9,0.9,2.3,3.1,2.8,5.1C384.9,153.3,384.1,157.7,384.1,157.8z"></path></g></svg>