<svg xmlns="http://www.w3.org/2000/svg" xmlns:xlink="http://www.w3.org/1999/xlink" id="Layer_1" x="0px" y="0px" viewBox="0 0 608.3 210.3" style="enable-background:new 0 0 608.3 210.3;" xml:space="preserve"><style type="text/css">	.st0{fill:#03599E;}</style><path class="st0" d="M604.9,55.6c-8.2-47-149.5-61.7-315.6-32.8C219.5,34.9,156.5,52.9,107.4,73c7.5,0.2,13.1,1.9,16.5,5.3 c2.7,2.7,4,6.3,4,10.9v4.7h-16.3v-4.1c0-3.4-2.1-5.6-5.7-5.6c-3.1,0-5,1.4-5.6,4.1c-0.2,0.8-0.2,2.1,0.1,3.3 c1.7,7.1,25.9,11.5,28.6,24.7c0.3,1.7,0.8,5.3,0.1,10.5c-1.5,10.6-10.8,14.7-22.7,14.7c-16.6,0-23.3-7.8-23.3-18.7l0-5.1h17.5l0,6.4 c0,3.6,2.6,5.6,6.1,5.6c3.4,0,5.3-1.4,6-4.1c0.3-1.3,0.5-3.1-0.1-4.6c-3.2-8.1-25.8-11.9-28.6-25c-0.6-2.9-0.7-5.5-0.2-8.6 c0.3-1.7,0.8-3.2,1.4-4.5c-54.4,25.4-86.3,53.4-82.1,77.6c8.2,47,149.5,61.7,315.6,32.8c73-12.7,138.7-31.7,188.6-53.1 c-0.7,0-1.4,0.1-2.2,0.1c-11.4,0-21.5-4.3-22.6-15.9c-0.2-2.1-0.2-3-0.2-4.2l0-26.7c0-1.2,0.1-3.2,0.3-4.2 c1.3-11.2,10.2-15.9,22.5-15.9c9.5,0,21.2,2.7,22.5,15.9c0.2,1.7,0.2,3.4,0.1,4c0,0,0,0,0,0v2.5h-16.5v-3.8v0c0-0.1,0-1.5-0.2-2.4 c-0.3-1.3-1.4-4.4-6.1-4.4c-4.6,0-5.8,3.1-6.1,4.5c-0.2,0.7-0.3,1.8-0.3,3v29c0,1,0,1.8,0.1,2.4c0.1,0.5,0.9,4.5,6.3,4.5 c5.4,0,6.2-4,6.3-4.5c0.1-0.8,0.2-1.7,0.2-2.4v-9h-6.5v-9.7h22.9c0,0,0,17.2,0,17.2c0,1.2,0,2-0.2,4.2c-0.3,3-1.2,5.6-2.7,7.8 C578.1,106.9,609,79.4,604.9,55.6z M174.1,138.9l-8.3-56.6h-0.3l-8.5,56.6h-17.6l11.8-64h28.7l11.7,64H174.1z M258.6,138.9 l-0.4-55.5h-0.3l-10.3,55.5h-16.5l-10.3-55.5h-0.3l-0.4,55.5h-16.3l1.4-64h26.3l7.7,47.5h0.4l7.7-47.5h26.3l1.4,64H258.6z  M335.5,126.5c-1.8,12.4-13.9,14.5-22.5,14.5c-14.2,0-23-6.1-23-18.5l0-5.1h17.3l0,6.3c0,3.4,2.4,5.5,6.1,5.5c3.3,0,5.3-1.3,5.9-4.1 c0.3-1.3,0.4-3.1-0.1-4.5c-3.2-8-25.6-11.9-28.3-24.8c-0.6-2.9-0.7-5.4-0.2-8.5c1.9-11.7,13.1-14.1,22.2-14.1c8.1,0,14,1.8,17.5,5.3 c2.6,2.6,4,6.2,4,10.7V94h-16.1v-4.1c0-3.5-2.2-5.5-5.6-5.5c-3.1,0-5,1.4-5.6,4.1c-0.1,0.6-0.2,1.9,0.1,3.2 c1.7,7.1,25.7,11.4,28.3,24.5C335.8,117.8,336.2,121.4,335.5,126.5z M395.2,120.7c0,1.2-0.1,3.6-0.2,4.2c-1,10.5-8.5,15.9-22.3,15.9 c-13.9,0-21.4-5.4-22.4-15.9c-0.1-0.6-0.2-3-0.2-4.2V75h16.5v47.2c0,1.1,0,1.8,0.1,2.4c0.2,1.1,1.2,4.5,5.9,4.5 c4.6,0,5.7-3.4,5.9-4.4c0.1-0.6,0.1-1.4,0.1-2.4V75h16.4C395.2,75,395.2,120.7,395.2,120.7z M466.4,138.3h-23L428,87.6h-0.3 l0.9,50.7h-16V75h23.9l14.2,48.7h0.3L450.2,75h16.1V138.3z"></path></svg>