<svg xmlns="http://www.w3.org/2000/svg" xmlns:xlink="http://www.w3.org/1999/xlink" id="Layer_1" x="0px" y="0px" viewBox="0 0 612 102.423" xml:space="preserve"><path fill="#3578BC" d="M402.578,7.868c28.32,0,48.412,15.461,48.412,44.133c0,27.435-18.652,44.15-48.412,44.15 c-29.077,0-48.444-16.008-48.444-44.15C354.134,24.236,373.283,7.868,402.578,7.868z M402.578,77.915 c15.138,0,24.028-10.395,24.028-25.914c0-16.299-9.407-25.91-24.028-25.91c-15.41,0-24.123,10.382-24.123,25.91 C378.455,66.868,386.899,77.915,402.578,77.915z M221.292,8.925c-2.85,0-47.614,0-47.614,0s0,3.378,0,6.648 c0,5.803,3.098,11.481,11.305,11.481c3.658,0,30.403,0.021,30.403,0.021c12.693,0,17.222,4.102,17.222,14.273v1.445h-32.175 c-23.864,0-32.673,11.057-32.673,26.105c0,18.196,12.207,26.206,32.745,26.206l0,0c0,0,13.273,0,21.397,0 c28.009,0,33.988-13.999,33.988-32.515V41.177C255.89,21.272,248.502,8.925,221.292,8.925z M232.607,62.795 c0,8.695-4.041,15.347-15.647,15.347h-12.125c-8.423,0-13.48-2.249-13.48-9.191c0-6.622,4.663-9.201,13.48-9.201h27.772V62.795z  M322.924,26.992c0,0,11.78,0,11.822,0c8.444,0,13.482-3.042,13.482-10.797v-7.27h-33.667l0,0 c-28.207,0-41.709,16.595-41.709,43.076c0,33.053,20.58,43.103,41.709,43.103h33.667v-7.345c0-7.648-5.264-10.735-12.902-10.735 c-3.607,0-12.402,0-12.402,0c-13.44,0-25.855-4.809-25.855-25.023C297.07,34.452,306.479,26.992,322.924,26.992z M68.512,71.542 c0,0-20.03-52.296-21.16-55.312c-1.533-4.119-3.637-7.305-11.233-7.305H18.835l35.522,86.179H80.19l36.661-86.179 c0,0-10.974,0-15.17,0c-6.559,0-9.068,2.808-10.705,6.902L68.874,71.542H68.512z M529.359,70.765c0,0-14.716-41.949-17.419-49.881 c-1.824-5.327-4.321-11.958-16.301-11.958c-1.524,0-27.397,0-27.397,0v86.179h9.293c7.005,0,11.463-3.129,11.463-10.351V24.51h0.372 l26.58,70.594h24.888l26.59-70.594h0.382c0,0,0,60.275,0,60.294c0,6.114,3.295,10.3,11.502,10.3h11.492V8.925c0,0-20.952,0-25.678,0 c-9.098,0-14.682,2.487-17.448,10.59c-1.803,5.274-17.917,51.249-17.917,51.249H529.359z M127.565,8.925V84.97 c0,5.918,3.524,10.134,11.171,10.134h12.103V8.925H127.565z"></path></svg>